<?xml version="1.0" standalone="no"?>
<!DOCTYPE svg PUBLIC "-//W3C//DTD SVG 20010904//EN"
 "http://www.w3.org/TR/2001/REC-SVG-20010904/DTD/svg10.dtd">
<svg version="1.0" xmlns="http://www.w3.org/2000/svg"
 width="260.000000pt" height="260.000000pt" viewBox="0 0 260.000000 260.000000"
 preserveAspectRatio="xMidYMid meet">
<metadata>
Created by potrace 1.11, written by Peter Selinger 2001-2013
</metadata>
<g transform="translate(0.000000,260.000000) scale(0.100000,-0.100000)"
fill="#000000" stroke="none">
<path d="M2110 2098 c-160 -23 -317 -170 -421 -393 -86 -182 -131 -459 -108
-665 6 -60 4 -70 -27 -138 -38 -82 -126 -221 -170 -267 -78 -82 -132 -97 -158
-47 -38 74 -45 156 -41 467 3 165 7 320 9 345 11 112 15 419 5 470 -12 62 -50
134 -79 150 -30 16 -90 12 -136 -10 -47 -23 -163 -136 -229 -225 -56 -75 -152
-266 -203 -405 l-39 -105 -44 3 c-167 9 -203 6 -269 -26 -75 -36 -127 -80
-163 -137 -38 -60 -43 -85 -18 -85 13 0 26 12 38 38 24 51 111 134 169 161 57
27 155 32 228 11 46 -13 48 -14 41 -44 -3 -17 -8 -42 -11 -56 -3 -14 -7 -32
-9 -40 -2 -8 -7 -46 -11 -85 -3 -38 -8 -73 -11 -77 -10 -19 -13 -326 -2 -356
23 -66 33 -29 35 134 1 87 4 177 8 199 3 22 8 60 11 85 15 114 33 198 44 204
3 3 65 -15 136 -39 141 -48 158 -52 255 -61 36 -4 68 -9 71 -13 4 -3 10 -67
13 -141 3 -74 9 -148 11 -165 34 -191 96 -266 219 -267 45 -1 61 4 93 28 71
52 156 169 218 297 l28 59 18 -59 c37 -120 122 -243 202 -291 104 -64 263 -72
377 -19 94 43 198 132 281 242 73 95 131 195 124 214 -8 21 -30 -4 -105 -124
-65 -104 -132 -175 -218 -232 -185 -123 -342 -113 -430 29 -29 46 -70 176 -78
245 -3 32 -8 61 -11 66 -9 15 -4 316 7 397 33 251 129 495 236 603 67 68 96
81 181 82 87 0 116 -17 155 -94 24 -47 26 -60 23 -139 -4 -96 -6 -105 -30
-177 -37 -106 -103 -205 -137 -205 -9 0 -9 -3 -1 -11 15 -15 63 11 98 53 67
78 109 216 109 353 0 76 -4 98 -25 140 -47 93 -144 140 -259 123z m-1023 -135
c12 -30 14 -59 9 -143 -3 -58 -8 -118 -10 -135 -3 -16 -8 -56 -11 -88 -4 -32
-8 -66 -10 -75 -1 -9 -6 -50 -10 -89 -4 -40 -8 -81 -10 -90 -2 -16 -18 -173
-19 -198 -2 -33 -205 6 -373 73 -107 42 -103 28 -48 177 98 263 244 483 382
575 62 40 80 39 100 -7z"/>
</g>
</svg>
